<svg xmlns="http://www.w3.org/2000/svg" viewBox="0 0 24 24" fill="currentColor">
  <path d="M17.813 4.653h.854c1.51.054 2.769.578 3.773 1.574 1.004.995 1.524 2.249 1.56 3.76v5.346c-.036 1.51-.556 2.769-1.56 3.773s-2.262 1.524-3.773 1.56H5.333l-.32 1.013-1.107 3.52c-.41 1.246-.691 2.18-.96 2.646-.269.466-.718.907-1.347 1.32l-.133.093c-.467.28-1.205.556-2.213.826C.56 21.77 0 21.88 0 21.953v.96c0 .073.054.16.16.267.427.373 1.053.666 1.88.88.827.213 1.654.32 2.48.32 1.28 0 2.454-.24 3.693-.72 1.24-.48 2.3-1.2 3.36-2.16 1.013.774 2.346 1.2 3.627 1.2a5.94 5.94 0 0 0 3.253-.907 6.01 6.01 0 0 0 2.16-2.346c.48-.934.747-2.027.747-3.28v-8.546c0-1.174-.24-2.24-.8-3.2a5.33 5.33 0 0 0-2.08-2.08A5.77 5.77 0 0 0 17.813 4.653Zm.8 10.52V9.6c0-.48-.16-.934-.48-1.28a1.6 1.6 0 0 0-1.173-.534c-.48-.027-.96.133-1.334.534-.374.4-.534.8-.534 1.28v5.68l-2.666 1.28V8.48c0-.48-.16-.934-.48-1.28a1.6 1.6 0 0 0-1.174-.534c-.48-.027-.96.133-1.334.534-.374.4-.534.8-.534 1.28v6.693l-2.666-1.28V8.48c0-.48-.16-.934-.48-1.28a1.6 1.6 0 0 0-1.174-.534c-.48-.027-.96.133-1.334.534-.374.4-.534.8-.534 1.28v5.68l-1.654-.693V6.187l1.107-.32h12.48l1.107.32v8.906l-1.654.693Z"/>
</svg>
